<svg width="100" height="100" viewBox="0 0 100 100" fill="none" xmlns="http://www.w3.org/2000/svg">
<rect width="100" height="100" fill="#2A2C2F"/>
<path d="M18.5595 42.0805L21.4754 40.6208L26.0844 33.6141L27.4953 33.0302L29.0003 40.1342L27.025 40.4262L25.52 37.5067L24.3913 42.0805H29.3765L34.5499 43.443L36.6192 42.0805L40.0994 45.7785L41.6044 38.9664L44.05 41.4966L45.555 39.3557L48.0005 38.6745L51.5748 35.2685L52.1392 33.6141L55.0551 34.1007L56.2779 35.755L54.1145 40.4262L59.4759 37.604V36.2416L61.5453 35.755L63.8027 38.0906L66.0602 35.2685V33.3221L69.7286 30.6946L71.2335 28.4564H73.585L77.7237 19.7953L81.298 16L82.6149 18.1409L80.5455 20.8658L81.298 22.6175L83.2733 23.0067L84.8723 30.2081V36.2416L87.6942 40.2315L89.1051 45.7785L84.2139 42.5671L82.0505 33.3221L80.7337 33.6141L80.5455 39.8423L76.9712 45.7785L75.9366 54.8289L78.3821 55.4128L79.4168 54.1477L81.7683 56.8725L83.5555 65.047L83.3674 70.302H81.1099L80.2634 62.906L78.6643 65.1443L75.1841 64.3658L72.3623 61.9329L69.1642 63.1007L69.3523 68.3557L66.8127 69.0369L63.0502 71.9564L58.5353 71.3725L56.7482 70.302L53.9264 70.7886L54.867 71.9564L52.6095 73.3188L50.8224 72.443L47.4362 74L42.2628 71.3725L40.2876 66.7013L38.5945 66.896L36.6192 65.2416L36.5251 63.9765L30.2231 63.2953L29.1884 66.7987L25.2378 64.9497L23.2626 61.5436H19.0298L18.5595 66.9933L16.1139 67.7718L14.8912 72.7349L13.9506 71.8591L10 61.4463L14.703 59.1107L13.9506 54.5369L13.1981 49.8658L15.2674 46.849L14.609 45L17.4308 41.8859L18.5595 42.0805ZM81.1099 53.5638L85.4367 60.1812L86.8476 59.5973L85.0605 56.8725L81.1099 52.5906V53.5638ZM36.9014 40.1342V38.1879L40.1935 35.755L43.0153 34.2953H39.7232L36.8073 36.047L35.0202 37.7013V40.1342H36.9014Z" fill="white"/>
</svg>
